<svg width="32" height="32" viewBox="0 0 32 32" fill="none" xmlns="http://www.w3.org/2000/svg">
  <!-- Background Circle (using the site's blue accent) -->
  <circle cx="16" cy="16" r="16" fill="#448AFF"/>

  <!-- Padlock Shackle -->
  <path d="M10 14V10C10 6.68629 12.6863 4 16 4C19.3137 4 22 6.68629 22 10V14" stroke="#121212" stroke-width="2.5" stroke-linecap="round"/>

  <!-- Padlock Body -->
  <rect x="7" y="13" width="18" height="13" rx="3" fill="#121212"/>

  <!-- Keyhole -->
  <circle cx="16" cy="18" r="2" fill="#448AFF"/>
  <path d="M15 18H17L17.5 22H14.5L15 18Z" fill="#448AFF"/>

  <!-- Skeleton Key (Subtle overlap or next to it) -->
  <path d="M24 20C24 18.8954 23.1046 18 22 18C20.8954 18 20 18.8954 20 20C20 21.1046 20.8954 22 22 22C23.1046 22 24 21.1046 24 20Z" stroke="#448AFF" stroke-width="1.5"/>
  <path d="M22 22V26M22 24H24M22 26H24" stroke="#448AFF" stroke-width="1.5" stroke-linecap="round"/>
</svg>
